<?xml version="1.0" standalone="no"?>
<!DOCTYPE svg PUBLIC "-//W3C//DTD SVG 20010904//EN"
 "http://www.w3.org/TR/2001/REC-SVG-20010904/DTD/svg10.dtd">
<svg version="1.0" xmlns="http://www.w3.org/2000/svg"
 width="308.7612359841165"
   height="304.915625" viewBox="0 0 2000.000000 1500.000000"
 preserveAspectRatio="xMidYMid meet">

<g transform="translate(0.000000,1500.000000) scale(0.100000,-0.100000)"
fill="#000000" stroke="none">
<path d="M0 7500 l0 -7500 10000 0 10000 0 0 7500 0 7500 -10000 0 -10000 0 0
-7500z m7691 1467 c87 -46 131 -156 100 -250 -23 -67 -122 -137 -196 -137 -86
0 -175 74 -195 161 -38 169 139 306 291 226z m9271 -13 c62 -43 90 -104 86
-180 -11 -177 -217 -255 -342 -130 -136 135 -36 354 157 343 44 -3 67 -10 99
-33z m-8263 -133 c14 -9 34 -30 45 -45 20 -26 21 -43 24 -296 l3 -268 182 -4
c159 -3 186 -5 210 -22 79 -53 75 -179 -6 -223 -26 -15 -63 -19 -210 -21
l-178 -4 3 -466 c3 -459 3 -468 25 -515 33 -72 75 -120 134 -151 45 -25 66
-30 163 -35 126 -7 153 -18 180 -74 38 -82 9 -173 -67 -207 -53 -24 -193 -27
-286 -5 -207 49 -375 221 -431 441 -19 71 -20 112 -20 546 l0 468 -92 0 c-114
0 -156 11 -194 51 -25 26 -29 38 -29 84 0 43 5 59 25 80 40 44 79 55 190 55
l100 0 0 265 c0 317 3 327 97 361 44 15 98 9 132 -15z m-4594 -246 c236 -49
472 -194 625 -383 80 -100 178 -286 209 -399 20 -75 19 -79 -22 -64 -18 7 -26
21 -36 64 -16 73 -109 257 -170 338 -136 179 -348 320 -571 381 -75 20 -107
23 -270 22 -171 0 -192 -2 -275 -27 -443 -133 -740 -506 -762 -958 -21 -421
202 -801 582 -992 314 -157 720 -138 1010 47 57 37 79 43 105 26 18 -11 9 -19
-93 -81 -248 -149 -576 -193 -853 -114 -445 127 -760 505 -804 962 -41 441
196 874 590 1077 94 48 213 89 305 105 33 6 71 13 85 15 51 9 268 -3 345 -19z
m2747 -296 c69 -15 141 -51 168 -86 18 -23 21 -37 18 -82 -4 -46 -10 -59 -38
-84 l-33 -30 -111 9 c-155 13 -281 9 -356 -10 -193 -49 -319 -168 -349 -331
-7 -37 -11 -247 -11 -579 0 -505 -1 -522 -20 -554 -53 -87 -213 -81 -262 9
-17 32 -18 78 -18 827 0 721 2 797 17 829 26 56 65 75 146 71 60 -3 71 -7 100
-36 30 -30 32 -38 36 -113 l3 -80 52 49 c100 94 222 162 337 187 79 17 250 19
321 4z m7121 -14 c27 -10 66 -34 88 -55 36 -34 39 -41 39 -89 0 -47 -4 -57
-35 -88 l-36 -36 -112 9 c-156 13 -282 9 -357 -10 -144 -36 -263 -125 -318
-236 l-27 -55 -5 -565 c-5 -615 -4 -600 -63 -644 -22 -16 -43 -21 -92 -21 -73
0 -109 20 -137 76 -17 31 -18 91 -18 818 0 770 0 785 20 827 25 50 68 74 135
74 59 0 112 -24 130 -60 8 -15 17 -57 21 -94 l7 -66 46 43 c63 58 130 103 204
136 54 24 86 35 172 55 48 12 291 -2 338 -19z m1553 -10 c326 -82 577 -349
651 -695 16 -75 18 -137 18 -535 0 -432 -1 -451 -20 -484 -30 -51 -78 -73
-148 -68 -51 3 -62 8 -95 40 l-37 37 -3 110 -4 109 -56 -60 c-79 -85 -210
-169 -329 -210 -95 -32 -102 -33 -263 -34 -186 0 -242 11 -369 71 -245 115
-415 336 -477 619 -23 106 -23 322 0 424 65 289 273 535 546 644 175 69 390
81 586 32z m-5636 5 c8 -5 29 -22 45 -40 l30 -31 6 -512 c5 -443 8 -520 23
-572 52 -180 179 -305 359 -352 86 -23 253 -22 332 1 146 43 263 137 319 255
l31 66 5 552 c5 537 6 552 26 579 38 51 68 67 129 67 61 0 91 -16 129 -67 21
-27 21 -37 24 -822 3 -879 5 -839 -61 -886 -42 -30 -121 -35 -167 -10 -44 25
-80 91 -80 149 l0 45 -49 -44 c-153 -137 -391 -206 -620 -180 -364 42 -605
256 -686 612 -15 64 -18 148 -22 561 -3 338 -1 498 6 527 26 94 137 145 221
102z m-2222 -4 c15 -8 38 -26 52 -41 l25 -27 3 -807 2 -808 -23 -34 c-64 -97
-210 -91 -264 12 l-23 43 2 791 c3 880 -2 821 71 865 38 24 116 26 155 6z
m9275 -11 c60 -45 58 4 55 -1007 -4 -1025 1 -960 -72 -1113 -71 -150 -194
-274 -341 -345 -103 -50 -177 -69 -296 -77 -79 -5 -101 -3 -132 12 -78 37
-107 127 -67 210 27 57 79 84 155 85 65 0 156 24 216 56 113 62 208 201 229
334 6 40 10 392 10 920 0 840 0 856 20 888 11 18 35 40 53 48 44 20 135 14
170 -11z m-13279 -419 c101 -31 166 -119 166 -225 -1 -73 -26 -127 -85 -179
l-47 -42 69 -112 c96 -154 96 -154 83 -179 -9 -15 -19 -19 -42 -17 -29 3 -39
16 -114 136 -45 73 -87 139 -92 145 -7 8 -35 11 -81 9 l-71 -4 0 -124 c0 -69
-5 -134 -10 -145 -7 -12 -21 -19 -40 -19 -19 0 -33 7 -40 19 -6 13 -10 148
-10 370 0 304 2 352 16 365 21 21 229 22 298 2z m646 -10 c136 -71 180 -230
97 -349 -11 -16 -37 -41 -57 -56 l-38 -27 79 -125 c60 -94 78 -131 76 -154 -2
-27 -5 -30 -37 -30 -34 0 -37 4 -126 145 -50 80 -94 144 -98 143 -3 -2 -35 -3
-71 -3 l-65 0 0 -117 c0 -129 -11 -166 -48 -171 -52 -8 -52 -8 -52 384 0 335
1 364 18 374 10 6 68 9 152 7 108 -2 142 -6 170 -21z m585 -451 c73 -72 -28
-178 -109 -114 -20 16 -26 29 -26 59 0 72 84 106 135 55z m-155 -393 c44 -55
4 -132 -70 -132 -33 0 -70 44 -70 83 0 76 94 109 140 49z"/>
<path d="M15130 7995 c-292 -80 -475 -346 -457 -665 17 -291 192 -511 463
-580 328 -84 654 114 741 450 22 87 22 254 -1 340 -23 91 -75 195 -129 262
-56 68 -171 147 -258 178 -85 29 -277 37 -359 15z"/>
<path d="M3450 7605 l0 -145 93 0 c74 0 98 4 124 20 68 41 88 112 54 184 -31
63 -81 86 -189 86 l-82 0 0 -145z"/>
<path d="M4070 7606 l0 -146 93 0 c101 0 140 15 172 64 23 35 22 122 -3 155
-41 55 -67 66 -168 69 l-94 4 0 -146z"/>
</g>
</svg>
